{"title":"The.Next.Three.Days.2010.BRRIP.720P.H264-ZEKTORM","uid":6203872,"size":2726184882,"categoryP":"video","categoryS":"hd___movies","magnet":"?xt=urn:btih:07396bf20c08f96d50c3bd8f355693a1a2e543c7&amp;dn=The.Next.Three.Days.2010.BRRIP.720P.H264-ZEKTORM&amp;tr=udp%3A%2F%2Ftracker.openbittorrent.com%3A80&amp;tr=udp%3A%2F%2Fopen.demonii.com%3A1337&amp;tr=udp%3A%2F%2Ftracker.coppersurfer.tk%3A6969&amp;tr=udp%3A%2F%2Fexodus.desync.com%3A6969","seeders":0,"leechers":0,"uploader":"blowley","files":4,"time":1298720833,"description":"Title                            : The Next Three Days\nYear                             : 2010\nGenre                            : Crime | Drama | Romance\niMDB URL                         : http://www.imdb.com/title/tt1458175/\n\nComplete name                    : The.Next.Three.Days.2010.BRRIP.720P.H264-ZEKTORM.mp4\nFormat                           : MPEG-4\nFormat profile                   : Base Media\nCodec ID                         : isom\nFile size                        : 2.54 GiB\nDuration                         : 2h 13mn\nOverall bit rate                 : 2730 Kbps\nSubtitles                        : English (Format: srt)\n\nVideo\nID                               : 1\nFormat                           : AVC\nFormat/Info                      : Advanced Video Codec\nFormat profile                   : &lt;a class=&quot;__cf_email__&quot; href=&quot;/cdn-cgi/l/email-protection&quot; data-cfemail=&quot;4d05242a250d0179637d&quot;&gt;[email&amp;#160;protected]&lt;/a&gt;&lt;script cf-hash='f9e31' type=&quot;text/javascript&quot;&gt;\n/* &lt;![CDATA[ */!function(){try{var t=&quot;currentScript&quot;in document?document.currentScript:function(){for(var t=document.getElementsByTagName(&quot;script&quot;),e=t.length;e--;)if(t[e].getAttribute(&quot;cf-hash&quot;))return t[e]}();if(t&amp;&amp;t.previousSibling){var e,r,n,i,c=t.previousSibling,a=c.getAttribute(&quot;data-cfemail&quot;);if(a){for(e=&quot;&quot;,r=parseInt(a.substr(0,2),16),n=2;a.length-n;n+=2)i=parseInt(a.substr(n,2),16)^r,e+=String.fromCharCode(i);e=document.createTextNode(e),c.parentNode.replaceChild(e,c)}}}catch(u){}}();/* ]]&gt; */&lt;/script&gt;\nFormat settings, CABAC           : Yes\nFormat settings, ReFrames        : 12 frames\nCodec ID                         : avc1\nCodec ID/Info                    : Advanced Video Coding\nDuration                         : 2h 13mn\nBit rate mode                    : Variable\nBit rate                         : 2519 Kbps\nWidth                            : 1280 pixels\nHeight                           : 544 pixels\nDisplay aspect ratio             : 2.35\nFrame rate mode                  : Constant\nFrame rate                       : 23.976 fps\nResolution                       : 24 bits\nColorimetry                      : 4:2:0\nScan type                        : Progressive\nBits/(Pixel*Frame)               : 0.151\nStream size                      : 2.34 GiB (92%)\nTitle                            : Video\nWriting library                  : x264\n\nAudio\nID                               : 2\nFormat                           : AAC\nFormat/Info                      : Advanced Audio Codec\nFormat version                   : Version 4\nFormat profile                   : LC\nFormat settings, SBR             : Yes\nFormat settings, PS              : No\nCodec ID                         : 40\nDuration                         : 2h 13mn\nBit rate mode                    : Variable\nBit rate                         : 208 Kbps\nMaximum bit rate                 : 258 Kbps\nChannel(s)                       : 6 channels\nChannel positions                : Front: L C R, Rear: L R, LFE\nSampling rate                    : 48.0 KHz\nResolution                       : 16 bits\nStream size                      : 198 MiB (8%)\nLanguage                         : English\n\n\n\nScreenshots:\n &lt;a href=&quot;\nhttp://img20.imageshack.us/img20/4862/snaptntd1.png&quot; rel=&quot;nofollow&quot; target=&quot;_NEW&quot;&gt;\nhttp://img20.imageshack.us/img20/4862/snaptntd1.png&lt;/a&gt;\n &lt;a href=&quot;\nhttp://img828.imageshack.us/img828/9351/snaptntd2.png&quot; rel=&quot;nofollow&quot; target=&quot;_NEW&quot;&gt;\nhttp://img828.imageshack.us/img828/9351/snaptntd2.png&lt;/a&gt;\n &lt;a href=&quot;\nhttp://img192.imageshack.us/img192/9775/snaptntd3.png&quot; rel=&quot;nofollow&quot; target=&quot;_NEW&quot;&gt;\nhttp://img192.imageshack.us/img192/9775/snaptntd3.png&lt;/a&gt;\n &lt;a href=&quot;\nhttp://img638.imageshack.us/img638/5536/snaptntd4.png&quot; rel=&quot;nofollow&quot; target=&quot;_NEW&quot;&gt;\nhttp://img638.imageshack.us/img638/5536/snaptntd4.png&lt;/a&gt;\n","torrent":{"xt":"urn:btih:07396bf20c08f96d50c3bd8f355693a1a2e543c7","amp;dn":"The.Next.Three.Days.2010.BRRIP.720P.H264-ZEKTORM","amp;tr":["udp%3A%2F%2Ftracker.openbittorrent.com%3A80","udp%3A%2F%2Fopen.demonii.com%3A1337","udp%3A%2F%2Ftracker.coppersurfer.tk%3A6969","udp%3A%2F%2Fexodus.desync.com%3A6969"],"infoHash":"07396bf20c08f96d50c3bd8f355693a1a2e543c7","infoHashBuffer":{"type":"Buffer","data":[7,57,107,242,12,8,249,109,80,195,189,143,53,86,147,161,162,229,67,199]},"announce":[],"urlList":[]}}